<?xml version="1.0" standalone="no"?>
<!DOCTYPE svg PUBLIC "-//W3C//DTD SVG 20010904//EN"
 "http://www.w3.org/TR/2001/REC-SVG-20010904/DTD/svg10.dtd">
<svg version="1.0" xmlns="http://www.w3.org/2000/svg"
 width="1473.000000pt" height="1473.000000pt" viewBox="0 0 1473.000000 1473.000000"
 preserveAspectRatio="xMidYMid meet">
<metadata>
Created by potrace 1.11, written by Peter Selinger 2001-2013
</metadata>
<g transform="translate(0.000000,1473.000000) scale(0.100000,-0.100000)"
fill="#000000" stroke="none">
<path d="M7170 12900 c-239 -23 -411 -102 -465 -213 -16 -34 -28 -43 -62 -53
-24 -7 -55 -19 -70 -28 -16 -8 -104 -45 -198 -82 -93 -36 -188 -74 -210 -84
-22 -10 -87 -38 -145 -63 -411 -176 -817 -390 -995 -525 -33 -25 -85 -65 -117
-89 -39 -30 -96 -58 -190 -92 -180 -67 -241 -95 -320 -147 -159 -106 -240
-266 -268 -532 -16 -152 -32 -172 -144 -172 -72 -1 -215 -34 -275 -65 -60 -30
-104 -86 -127 -159 -13 -45 -30 -276 -39 -541 -2 -38 -3 -76 -4 -82 -1 -10
-171 -13 -816 -13 l-815 0 0 -165 0 -165 5490 0 5490 0 0 165 0 165 -4055 0
-4055 0 0 21 c0 11 12 54 26 95 22 60 39 88 92 145 194 209 508 320 1132 399
371 47 504 52 1455 57 1126 6 2148 -13 2445 -47 47 -5 164 -16 260 -24 407
-36 616 -85 831 -197 46 -24 107 -24 135 -1 74 59 59 215 -28 303 -71 71 -159
95 -423 114 -110 9 -247 20 -305 25 -58 5 -307 14 -555 20 -247 6 -562 15
-700 20 -281 11 -3086 12 -3580 1 -176 -4 -326 -5 -332 -3 -22 7 -14 51 14 90
128 177 434 405 698 522 324 144 576 214 980 272 151 21 187 22 675 21 283 -1
567 -6 630 -12 63 -6 203 -16 310 -21 325 -18 651 -55 880 -100 320 -64 475
-105 620 -162 90 -36 289 -134 310 -154 24 -21 86 -44 118 -44 16 0 36 8 45
18 55 61 -31 165 -204 249 -102 50 -272 118 -342 137 -29 7 -117 32 -197 54
-339 94 -960 185 -1455 213 -99 5 -452 13 -785 16 -601 5 -1141 -9 -1390 -37
-47 -6 -127 -15 -179 -21 -102 -11 -141 -7 -141 16 0 14 69 71 100 83 8 3 35
19 60 35 84 56 95 63 220 123 222 108 273 129 485 199 285 94 603 134 839 105
45 -5 169 -14 276 -19 295 -15 617 -64 970 -148 166 -39 199 -49 520 -148 257
-80 310 -91 310 -65 0 44 -299 191 -585 288 -230 77 -312 101 -515 152 -91 22
-204 52 -252 65 -48 14 -96 25 -108 25 -36 0 -59 19 -81 65 -37 79 -149 150
-285 180 -81 19 -471 28 -604 15z"/>
<path d="M940 8935 l0 -525 110 0 110 0 0 -2645 0 -2645 -110 0 -110 0 0 -265
0 -265 -155 0 -155 0 0 -135 0 -135 -150 0 -150 0 0 -130 0 -130 -165 0 -165
0 0 -265 0 -265 7365 0 7365 0 0 265 0 265 -130 0 -130 0 0 130 0 130 -135 0
-135 0 0 135 0 135 -150 0 -150 0 0 265 0 265 -150 0 -150 0 0 2645 0 2645
150 0 150 0 0 525 0 525 -6480 0 -6480 0 0 -525z m4100 -3175 l0 -2650 -1500
0 -1500 0 0 2650 0 2650 1500 0 1500 0 0 -2650z m3840 5 l0 -2645 -1490 0
-1490 0 0 2645 0 2645 1490 0 1490 0 0 -2645z m3820 0 l0 -2645 -1495 0 -1495
0 0 2645 0 2645 1495 0 1495 0 0 -2645z"/>
</g>
</svg>
